<?xml version="1.0" encoding="UTF-8"?>
<svg width="60px" height="14px" viewBox="0 0 60 14" version="1.1" xmlns="http://www.w3.org/2000/svg" xmlns:xlink="http://www.w3.org/1999/xlink">
    <!-- Generator: Sketch 54.1 (76490) - https://sketchapp.com -->
    <title>options icon</title>
    <desc>Created with Sketch.</desc>
    <g id="Page-1" stroke="none" stroke-width="1" fill="none" fill-rule="evenodd">
        <g id="James-Zhou---My-Profile" transform="translate(-679.000000, -2329.000000)" fill="#C3C5D5" fill-rule="nonzero">
            <path d="M702.240816,2336 C702.240816,2332.13225 705.265306,2329 709,2329 C712.734694,2329 715.759184,2332.13225 715.759184,2336 C715.759184,2339.86775 712.734694,2343 709,2343 C705.265306,2343 702.240816,2339.86775 702.240816,2336 Z M732.240816,2329 C728.506122,2329 725.481633,2332.13225 725.481633,2336 C725.481633,2339.86775 728.506122,2343 732.240816,2343 C735.97551,2343 739,2339.86775 739,2336 C739,2332.13225 735.97551,2329 732.240816,2329 Z M685.759184,2329 C682.02449,2329 679,2332.13225 679,2336 C679,2339.86775 682.02449,2343 685.759184,2343 C689.493878,2343 692.518367,2339.86775 692.518367,2336 C692.518367,2332.13225 689.493878,2329 685.759184,2329 Z" id="options-icon"></path>
        </g>
    </g>
</svg>